<svg width="94" height="29" viewBox="0 0 94 29" fill="none" xmlns="http://www.w3.org/2000/svg">
<path d="M46.38 18.371C46.8622 17.1777 47.3043 16.0802 47.7464 14.9797C49.6013 10.3517 51.4562 5.72678 53.3111 1.09879C53.6512 0.254809 54.016 0.0136719 54.9311 0.0136719C60.8544 0.0136719 66.7808 0.0136719 72.7041 0.0136719C73.6161 0.0136719 74.12 0.40011 74.219 1.16371C74.321 1.96132 73.7831 2.57962 72.97 2.57962C69.5786 2.57962 66.1872 2.57962 62.799 2.57962C62.2394 2.57962 62.3012 2.51779 62.3012 3.05881C62.3012 4.99409 62.3074 6.92628 62.295 8.85847C62.295 9.16762 62.3816 9.24491 62.6846 9.24491C65.7575 9.23563 68.8305 9.23563 71.9034 9.23873C72.5712 9.23873 73.0689 9.67772 73.1648 10.3331C73.2544 10.9391 72.8742 11.545 72.2713 11.715C72.0766 11.7707 71.8602 11.7645 71.653 11.7645C68.679 11.7645 65.705 11.7707 62.7278 11.7614C62.4063 11.7614 62.2919 11.8263 62.295 12.1787C62.3136 14.1233 62.3105 16.071 62.295 18.0155C62.295 18.3432 62.3692 18.4452 62.7124 18.4452C66.0914 18.4329 69.4704 18.436 72.8494 18.436C73.6934 18.436 74.2221 18.9275 74.2252 19.7127C74.2252 20.5042 73.712 21.0019 72.8618 21.005C68.9078 21.0081 64.9537 21.0019 60.9997 21.0112C60.2979 21.0112 59.5529 20.498 59.556 19.5613C59.5807 14.0646 59.5683 8.57096 59.5683 3.07735C59.5683 2.74553 59.4014 2.57962 59.0675 2.57962C58.038 2.57962 57.0117 2.58581 55.9822 2.57344C55.7441 2.57344 55.6205 2.62599 55.5215 2.86713C53.2307 8.45039 50.9276 14.0306 48.6244 19.6107C47.9875 21.1534 46.955 21.3791 45.4185 21.0297C44.8218 20.8937 44.4663 20.396 44.2345 19.8488C43.6594 18.5009 43.0999 17.1437 42.5434 15.7896C40.6607 11.2266 38.781 6.6635 36.8983 2.09735C36.8056 1.86858 36.7314 1.6429 36.7345 1.38939C36.7437 0.737084 37.1024 0.211528 37.6465 0.075502C38.3668 -0.103805 38.9944 0.134241 39.2819 0.774182C39.6621 1.62126 39.9929 2.48997 40.3392 3.3525C42.2961 8.2278 44.2499 13.1031 46.2068 17.9815C46.247 18.0804 46.2934 18.1732 46.38 18.3649" fill="white"/>
<path d="M90.1878 11.579C92.2374 12.2004 93.0381 13.8265 93.508 15.7031C93.8605 17.1035 93.8543 18.538 93.8048 19.9662C93.7832 20.6464 93.1371 21.1688 92.4137 21.1534C91.6346 21.1379 91.0967 20.6247 91.0874 19.8797C91.0689 18.5596 91.0781 17.2395 90.7319 15.9504C90.1939 13.9316 88.8368 12.8651 86.7407 12.8465C84.6849 12.8311 82.629 12.8496 80.5732 12.8341C80.264 12.8341 80.2146 12.9423 80.2177 13.2144C80.2269 15.4032 80.2269 17.5951 80.2208 19.7838C80.2208 20.4825 79.757 21.0019 79.0553 21.1317C78.44 21.2461 77.8094 20.8999 77.5713 20.3125C77.4508 20.0126 77.4539 19.688 77.4539 19.3727C77.4477 13.437 77.4477 7.50439 77.4539 1.5687C77.4539 0.591783 78.0103 0.0105795 78.9594 0.0105795C81.4543 0.00748797 83.9522 -0.0203356 86.4501 0.0291285C88.3143 0.0662266 90.1259 0.403201 91.6964 1.50996C93.1185 2.51161 93.8419 3.8966 93.9749 5.62475C94.1047 7.31272 93.6163 8.78427 92.4971 10.0425C91.9623 10.6454 91.2883 11.0658 90.5495 11.3811C90.4289 11.4337 90.2898 11.4553 90.1878 11.5728M83.8038 2.64145C82.6012 2.64145 81.5965 2.65073 80.5917 2.63527C80.3135 2.63218 80.2146 2.6971 80.2177 2.99697C80.23 5.28469 80.23 7.5724 80.2177 9.86012C80.2177 10.1445 80.2857 10.2342 80.5825 10.2311C82.3817 10.2187 84.1779 10.2218 85.9771 10.2249C86.7407 10.2249 87.492 10.1353 88.2185 9.90649C89.7333 9.43349 90.9823 8.65752 91.208 6.91082C91.4027 5.38362 90.939 3.91515 89.285 3.21956C88.6266 2.94442 87.9402 2.79912 87.2292 2.71874C86.0204 2.58271 84.8086 2.67546 83.8007 2.64145" fill="white"/>
<path d="M7.91491 0.00423737C9.85947 0.0196949 11.7607 0.291747 13.594 0.965696C14.472 1.28721 14.7317 2.1652 14.1938 2.9288C13.8908 3.36161 13.4549 3.49764 12.8984 3.30597C11.1703 2.7124 9.39574 2.4187 7.56866 2.50527C6.28259 2.564 5.04599 2.82987 3.97633 3.60275C2.75209 4.48692 2.49241 6.34182 3.46005 7.43313C4.03816 8.08234 4.82649 8.40386 5.63647 8.66355C7.26569 9.18601 8.95366 9.48279 10.5891 9.99289C11.6556 10.3268 12.6851 10.7441 13.5724 11.4459C14.6606 12.3084 15.2078 13.4461 15.2943 14.8311C15.3994 16.4789 14.9203 17.901 13.73 19.0541C12.7933 19.9599 11.6433 20.4916 10.3819 20.7822C8.85164 21.1347 7.30897 21.1192 5.75395 20.9554C4.11236 20.7822 2.54806 20.3309 1.01467 19.7404C0.486021 19.5364 0.0995828 19.1901 0.0161121 18.6213C-0.129189 17.6073 0.73025 16.9364 1.70717 17.3074C2.51714 17.6165 3.33021 17.9257 4.17419 18.1297C6.16203 18.6089 8.16223 18.6924 10.1624 18.2101C11.7948 17.8144 12.6573 16.72 12.6449 15.1186C12.6387 14.3797 12.2801 13.8418 11.6896 13.443C10.7096 12.7814 9.57814 12.4939 8.45592 12.194C7.01837 11.8107 5.55609 11.5077 4.16182 10.9667C3.04579 10.5339 2.00395 9.99289 1.21252 9.04998C0.591132 8.30802 0.291256 7.46095 0.220152 6.50258C0.0995828 4.895 0.554034 3.48218 1.62988 2.28577C2.50477 1.31504 3.62081 0.718375 4.86978 0.372127C5.86215 0.0969826 6.88235 -0.00503715 7.91491 0.00423737Z" fill="white"/>
<path d="M25.1203 1.43575C25.1203 0.832906 25.4016 0.390821 25.9426 0.162049C26.4527 -0.0512645 26.9566 0.0383892 27.3802 0.412461C27.7481 0.737069 27.8377 1.17297 27.8377 1.64288C27.8377 6.85825 27.8377 12.0705 27.8377 17.2859C27.8377 17.5301 27.8594 17.7775 27.8315 18.0186C27.7975 18.3494 27.9057 18.4483 28.2489 18.4483C31.2971 18.4328 34.3453 18.4421 37.3936 18.439C37.6563 18.439 37.9067 18.473 38.1386 18.5967C38.7044 18.8935 38.964 19.3881 38.8527 19.9508C38.7445 20.5072 38.2499 20.9308 37.6285 21.005C37.5327 21.0173 37.4337 21.0143 37.3348 21.0143C33.9311 21.0143 30.5273 21.0143 27.1236 21.0143C26.1065 21.0143 25.3614 20.4578 25.1574 19.5396C25.1172 19.3634 25.1203 19.1748 25.1172 18.9924C25.1172 16.0926 25.1172 4.39123 25.1172 1.44193" fill="white"/>
<path d="M18.7297 1.54705C18.7297 0.64742 19.2398 0.0754913 20.0435 0.0723998C20.8844 0.0693083 21.444 0.659786 21.444 1.56251C21.444 7.5693 21.444 13.5792 21.444 19.586C21.444 20.2785 21.1132 20.7793 20.5289 20.9895C19.9601 21.1936 19.3603 21.0204 18.9801 20.5413C18.7698 20.2785 18.7266 19.9724 18.7266 19.6447C18.7297 16.6089 18.7266 4.54581 18.7266 1.54705" fill="white"/>
<path d="M91.1298 25.5155C91.1298 26.4986 91.1236 27.4817 91.136 28.4648C91.1391 28.7183 91.102 28.8451 90.799 28.8389C90.4991 28.8358 90.462 28.7029 90.462 28.4524C90.4713 27.2715 90.462 26.0874 90.4713 24.9065C90.4713 24.7457 90.3507 24.4953 90.629 24.4489C90.8917 24.4026 91.1545 24.3902 91.3307 24.6963C91.7605 25.4413 92.2149 26.1709 92.6632 26.9067C92.8394 27.1973 93.0218 27.4879 93.2568 27.8681C93.2691 27.661 93.2815 27.559 93.2815 27.457C93.2815 26.6068 93.2815 25.7567 93.2815 24.9096C93.2815 24.6715 93.2073 24.4211 93.6215 24.418C94.0173 24.418 93.9833 24.6375 93.9802 24.891C93.9771 26.0473 93.9802 27.2066 93.974 28.3628C93.974 28.5236 94.0915 28.774 93.8039 28.8142C93.5535 28.8482 93.3155 28.8636 93.1393 28.5668C92.6384 27.7198 92.1005 26.8974 91.575 26.0627C91.4513 25.8679 91.3276 25.6732 91.204 25.4815C91.1762 25.4908 91.1483 25.5031 91.1236 25.5124" fill="white"/>
<path d="M52.059 26.5944C52.059 25.9792 52.059 25.364 52.059 24.7488C52.059 24.5726 52.0713 24.4242 52.3063 24.4335C52.906 24.4582 53.512 24.384 54.1086 24.4767C54.9588 24.6066 55.4287 25.0301 55.608 25.8741C55.7255 26.4306 55.7193 26.9994 55.5524 27.5497C55.302 28.3689 54.7146 28.7987 53.8149 28.8234C53.3358 28.8389 52.8566 28.8172 52.3774 28.8296C52.1393 28.8358 52.0311 28.7523 52.059 28.5112C52.059 28.4988 52.059 28.4864 52.059 28.4741V26.5913M53.4192 28.4864C54.1612 28.5297 54.5384 28.4308 54.8135 27.6888C55.0052 27.1756 55.0361 26.6315 54.9743 26.0905C54.897 25.4073 54.5322 24.9281 53.9757 24.8199C53.6665 24.7581 53.3388 24.8075 53.0204 24.7828C52.7669 24.7643 52.7113 24.8694 52.7144 25.1012C52.7236 25.9978 52.7175 26.8943 52.7175 27.7939C52.7175 28.2577 52.9503 28.4895 53.4161 28.4895" fill="white"/>
<path d="M84.9028 26.4924C85.4552 26.4924 85.7314 26.7665 85.7314 27.3148C85.7314 28.0629 85.1532 28.7616 84.3835 28.811C83.1283 28.8883 82.1236 28.5328 81.9535 26.9314C81.9195 26.5975 81.9195 26.2729 81.969 25.9421C82.0896 25.16 82.7388 24.4891 83.5147 24.3469C84.4144 24.1831 85.1501 24.4829 85.5428 25.1878C85.6046 25.296 85.7777 25.4753 85.5706 25.5495C85.4098 25.6082 85.144 25.6917 85.0327 25.4073C84.8101 24.8477 84.4144 24.5602 83.8022 24.6313C83.218 24.6993 82.9428 25.1136 82.7759 25.6175C82.5409 26.3409 82.612 27.052 82.9212 27.7352C83.1901 28.3226 83.7651 28.5761 84.3525 28.3906C84.8966 28.2206 85.1934 27.6548 85.0883 27.0242C85.0636 26.8727 84.9863 26.8479 84.8657 26.851C84.6555 26.851 84.4484 26.851 84.2381 26.851C84.1269 26.851 84.0496 26.8263 84.0434 26.6903C84.0403 26.5481 84.099 26.4893 84.2381 26.4893C84.4607 26.4924 84.6802 26.4893 84.9028 26.4893" fill="white"/>
<path d="M70.0652 28.8543C69.2213 28.8543 68.5968 28.505 68.3773 27.9052C68.3154 27.7383 68.133 27.4848 68.4329 27.3858C68.6802 27.3055 68.9121 27.3364 68.977 27.7166C69.0574 28.1927 69.484 28.4555 70.025 28.4679C70.5042 28.4771 70.9061 28.2329 71.0205 27.8588C71.1473 27.4538 71.002 27.1107 70.6155 26.8943C70.3527 26.749 70.059 26.7057 69.7746 26.6284C69.5737 26.5728 69.3727 26.514 69.178 26.4336C68.6246 26.208 68.368 25.8865 68.3958 25.4784C68.4298 24.9776 68.7513 24.5571 69.28 24.418C69.8334 24.2727 70.3991 24.2541 70.9339 24.5231C71.2369 24.6746 71.441 24.9188 71.5306 25.2372C71.5615 25.3485 71.7223 25.5557 71.4781 25.5866C71.2926 25.6113 71.0236 25.7381 70.9154 25.4227C70.8752 25.3053 70.8381 25.1878 70.7825 25.0796C70.6248 24.7735 70.2044 24.588 69.8396 24.6499C69.4377 24.7179 69.1811 24.9621 69.113 25.3362C69.0419 25.7195 69.1842 25.9792 69.5644 26.109C69.8426 26.2049 70.1332 26.2636 70.4146 26.3409C70.5908 26.3904 70.7763 26.4275 70.9432 26.5048C71.3822 26.7026 71.7099 27.0179 71.747 27.5219C71.781 28.0072 71.4997 28.3257 71.1133 28.5668C70.7794 28.7739 70.4208 28.8821 70.0683 28.8543" fill="white"/>
<path d="M62.0964 28.7894C61.6543 28.7894 61.2091 28.7801 60.7671 28.7925C60.5568 28.7987 60.4579 28.7492 60.461 28.5081C60.4703 27.2529 60.4703 26.0009 60.461 24.7457C60.461 24.5386 60.5259 24.4675 60.7362 24.4706C61.5987 24.4798 62.4581 24.4736 63.3207 24.4767C63.4412 24.4767 63.5865 24.4582 63.5772 24.6499C63.568 24.8199 63.4289 24.7859 63.3268 24.7859C62.6993 24.789 62.0717 24.7952 61.4441 24.7828C61.2091 24.7766 61.1133 24.8384 61.1257 25.0889C61.1442 25.432 61.1442 25.7783 61.1257 26.1214C61.1133 26.3564 61.2061 26.4151 61.4256 26.4089C61.9418 26.3966 62.4581 26.3904 62.9744 26.412C63.1228 26.4182 63.4103 26.2605 63.4072 26.5666C63.4041 26.8232 63.1382 26.6995 62.9929 26.7057C62.4643 26.7212 61.9357 26.7181 61.407 26.7057C61.203 26.7026 61.1195 26.7614 61.1288 26.9778C61.1411 27.3704 61.1442 27.7661 61.1288 28.1587C61.1195 28.3968 61.1906 28.4802 61.4379 28.4771C62.0902 28.4617 62.7425 28.4679 63.3948 28.4771C63.5092 28.4771 63.6978 28.3968 63.7102 28.6132C63.7256 28.8636 63.5185 28.7832 63.3918 28.7863C62.962 28.7956 62.5292 28.7894 62.0995 28.7894" fill="white"/>
<path d="M76.4244 26.5944C76.4244 25.9545 76.4368 25.3146 76.4182 24.6777C76.409 24.3005 76.6718 24.4304 76.848 24.4211C77.0273 24.4118 77.2437 24.3407 77.2406 24.6777C77.2282 25.9792 77.2282 27.2838 77.2406 28.5854C77.2437 28.9625 76.9871 28.8327 76.8109 28.842C76.6316 28.8512 76.409 28.9223 76.4182 28.5823C76.4368 27.9176 76.4244 27.256 76.4244 26.5913" fill="white"/>
</svg>
